<svg id="Layer_1" data-name="Layer 1" xmlns="http://www.w3.org/2000/svg" viewBox="0 0 72 72"><defs><style>.cls-1{fill:none;stroke:#d8afca;stroke-miterlimit:10;stroke-width:5.94px;}.cls-2{fill:#d8afca;}</style></defs><path class="cls-1" d="M59.31,28.72A23.31,23.31,0,1,1,36,5.41,23.24,23.24,0,0,1,59.31,28.72Z"/><path class="cls-2" d="M36,20a2.27,2.27,0,0,1-1.56-.56,2,2,0,0,1-.65-1.59,2,2,0,0,1,.66-1.54,2.25,2.25,0,0,1,1.55-.6,2.29,2.29,0,0,1,1.52.55,2,2,0,0,1,.65,1.59,2,2,0,0,1-.64,1.58A2.23,2.23,0,0,1,36,20Zm2.17,4.54V37.2a2.81,2.81,0,0,1-.62,2,2.09,2.09,0,0,1-1.59.68,2,2,0,0,1-1.57-.69,2.93,2.93,0,0,1-.6-2V24.65a2.85,2.85,0,0,1,.6-2A2,2,0,0,1,36,22a2.1,2.1,0,0,1,1.59.66A2.55,2.55,0,0,1,38.19,24.52Z"/><path class="cls-2" d="M25,65.63l-.41-1.07H21.13l-.41,1.1a4.09,4.09,0,0,1-.41.86.63.63,0,0,1-.55.22.8.8,0,0,1-.57-.24.72.72,0,0,1-.25-.54A1.23,1.23,0,0,1,19,65.6c0-.12.1-.29.19-.51l2.17-5.53.23-.57a3.13,3.13,0,0,1,.27-.55,1.12,1.12,0,0,1,.39-.36,1.45,1.45,0,0,1,1.2,0,1.2,1.2,0,0,1,.39.35,2.94,2.94,0,0,1,.25.46c.06.17.15.39.25.66L26.57,65a2.86,2.86,0,0,1,.26.91.76.76,0,0,1-.25.54.78.78,0,0,1-.59.25.73.73,0,0,1-.35-.07.82.82,0,0,1-.25-.2,2.36,2.36,0,0,1-.21-.38Zm-3.41-2.36h2.54l-1.28-3.51Z"/><path class="cls-2" d="M29.44,58.85v2.42a3.58,3.58,0,0,1,.91-.71,2.73,2.73,0,0,1,2.53.13,2.47,2.47,0,0,1,.93,1.08,4,4,0,0,1,.32,1.69A4.58,4.58,0,0,1,34,64.78a3.19,3.19,0,0,1-.53,1,2.41,2.41,0,0,1-.84.68,2.63,2.63,0,0,1-1.78.15,1.86,1.86,0,0,1-.55-.23,2.47,2.47,0,0,1-.39-.29l-.42-.45v.15a1,1,0,0,1-.21.68.73.73,0,0,1-.55.23.67.67,0,0,1-.53-.23,1,1,0,0,1-.2-.68V58.92a1.18,1.18,0,0,1,.19-.73.66.66,0,0,1,.54-.24.7.7,0,0,1,.57.23A1,1,0,0,1,29.44,58.85Zm.08,4.71A2.16,2.16,0,0,0,30,65a1.42,1.42,0,0,0,1.13.51,1.31,1.31,0,0,0,1-.52,2.28,2.28,0,0,0,.44-1.49,2.91,2.91,0,0,0-.18-1.08,1.62,1.62,0,0,0-.51-.7,1.32,1.32,0,0,0-.78-.25,1.38,1.38,0,0,0-.8.25,1.68,1.68,0,0,0-.56.71A3,3,0,0,0,29.52,63.56Z"/><path class="cls-2" d="M41.33,63.52a3.71,3.71,0,0,1-.22,1.31,2.88,2.88,0,0,1-.63,1,2.82,2.82,0,0,1-1,.66,3.6,3.6,0,0,1-1.31.23,3.49,3.49,0,0,1-1.29-.23,3.08,3.08,0,0,1-1-.67,2.74,2.74,0,0,1-.63-1,3.58,3.58,0,0,1-.22-1.3,3.73,3.73,0,0,1,.22-1.32,3,3,0,0,1,.63-1,2.84,2.84,0,0,1,1-.65,3.57,3.57,0,0,1,1.29-.23,3.64,3.64,0,0,1,1.31.23,3,3,0,0,1,1,.66,2.94,2.94,0,0,1,.64,1A3.81,3.81,0,0,1,41.33,63.52Zm-1.59,0A2.42,2.42,0,0,0,39.32,62a1.4,1.4,0,0,0-1.15-.54,1.44,1.44,0,0,0-.82.24,1.58,1.58,0,0,0-.54.71,2.88,2.88,0,0,0-.19,1.1,2.83,2.83,0,0,0,.19,1.09,1.5,1.5,0,0,0,.54.71,1.41,1.41,0,0,0,.82.24A1.4,1.4,0,0,0,39.32,65,2.39,2.39,0,0,0,39.74,63.52Z"/><path class="cls-2" d="M46.69,65.85v-.21a4.3,4.3,0,0,1-.59.61,2.27,2.27,0,0,1-.69.36,2.77,2.77,0,0,1-.85.12,2.13,2.13,0,0,1-1-.24,1.74,1.74,0,0,1-.71-.66,2.85,2.85,0,0,1-.3-1.45V61.25a1,1,0,0,1,.22-.71.72.72,0,0,1,.57-.24.75.75,0,0,1,.58.24,1,1,0,0,1,.22.71v2.53a4.06,4.06,0,0,0,.09.93,1.07,1.07,0,0,0,.33.58,1,1,0,0,0,.66.21,1.4,1.4,0,0,0,.75-.23,1.42,1.42,0,0,0,.52-.62,5.07,5.07,0,0,0,.13-1.48V61.25a1,1,0,0,1,.22-.71.75.75,0,0,1,.57-.24.72.72,0,0,1,.57.24,1,1,0,0,1,.22.71v4.58a1,1,0,0,1-.21.68.67.67,0,0,1-.53.23.7.7,0,0,1-.54-.24A.92.92,0,0,1,46.69,65.85Z"/><path class="cls-2" d="M49.84,60.44H50v-.95a4.9,4.9,0,0,1,0-.6.89.89,0,0,1,.11-.38.75.75,0,0,1,.27-.26.71.71,0,0,1,.39-.1.73.73,0,0,1,.54.23.67.67,0,0,1,.21.36,3.35,3.35,0,0,1,0,.62v1.08h.58a.71.71,0,0,1,.51.16.52.52,0,0,1,.18.41.47.47,0,0,1-.25.45,1.73,1.73,0,0,1-.72.12h-.3V64.5a4.24,4.24,0,0,0,0,.57.5.5,0,0,0,.14.32.46.46,0,0,0,.36.13,2.2,2.2,0,0,0,.38,0,1.51,1.51,0,0,1,.37,0,.5.5,0,0,1,.35.15.52.52,0,0,1,.15.38.64.64,0,0,1-.42.59,2.92,2.92,0,0,1-1.2.2,2,2,0,0,1-1.12-.25,1.12,1.12,0,0,1-.5-.69A4.65,4.65,0,0,1,50,64.62v-3h-.21a.74.74,0,0,1-.52-.16.54.54,0,0,1-.18-.41.52.52,0,0,1,.18-.41A.82.82,0,0,1,49.84,60.44Z"/></svg>