<svg id="Layer_1" data-name="Layer 1" xmlns="http://www.w3.org/2000/svg" viewBox="0 0 72 72"><defs><style>.cls-1,.cls-2{fill:#d8afca;}.cls-1{stroke:#d8afca;stroke-linecap:round;stroke-miterlimit:10;stroke-width:3.08px;}</style></defs><path class="cls-1" d="M36.09,52.61l-20-20c-20-20,0-40.05,20-20,19.73-19.74,39.72.26,20,20Z"/><path class="cls-2" d="M13.88,59.79H10.77v2h2.6a.73.73,0,0,1,.53.16.55.55,0,0,1,.18.43.54.54,0,0,1-.18.43.76.76,0,0,1-.53.16h-2.6v2.57a1,1,0,0,1-.22.72.73.73,0,0,1-.56.24.72.72,0,0,1-.57-.24,1,1,0,0,1-.22-.72v-6A1.28,1.28,0,0,1,9.3,59a.59.59,0,0,1,.31-.31,1.29,1.29,0,0,1,.55-.1h3.72a.79.79,0,0,1,.55.17.6.6,0,0,1,0,.88A.79.79,0,0,1,13.88,59.79Z"/><path class="cls-2" d="M19.08,65.67a4.29,4.29,0,0,1-1,.61,2.73,2.73,0,0,1-1.1.21,2.21,2.21,0,0,1-1-.22,1.71,1.71,0,0,1-.65-.6,1.58,1.58,0,0,1-.22-.82,1.47,1.47,0,0,1,.37-1,1.92,1.92,0,0,1,1-.57l.68-.14.94-.2L19,62.7a1.43,1.43,0,0,0-.23-.84,1,1,0,0,0-.84-.27,1.65,1.65,0,0,0-.83.16,1.24,1.24,0,0,0-.48.46c-.13.2-.23.34-.28.4a.44.44,0,0,1-.35.1.6.6,0,0,1-.43-.16.51.51,0,0,1-.17-.4,1.23,1.23,0,0,1,.27-.74,1.89,1.89,0,0,1,.84-.59,3.71,3.71,0,0,1,1.43-.24,4.07,4.07,0,0,1,1.5.23,1.42,1.42,0,0,1,.77.71,3.15,3.15,0,0,1,.23,1.3c0,.34,0,.63,0,.86v.79a3,3,0,0,0,.13.86,2.68,2.68,0,0,1,.14.57.52.52,0,0,1-.21.4.73.73,0,0,1-.48.19.65.65,0,0,1-.44-.21A3.43,3.43,0,0,1,19.08,65.67Zm-.1-2.1a7.39,7.39,0,0,1-.92.25l-.84.19a1.1,1.1,0,0,0-.45.24.61.61,0,0,0-.21.5.71.71,0,0,0,.25.55.9.9,0,0,0,.65.24,1.74,1.74,0,0,0,.79-.19,1.3,1.3,0,0,0,.54-.49A2.24,2.24,0,0,0,19,63.78Z"/><path class="cls-2" d="M22.63,61.5l1.17,3.29,1.26-3.44a1.9,1.9,0,0,1,.3-.58.51.51,0,0,1,.43-.18.67.67,0,0,1,.47.19.57.57,0,0,1,.19.43,1,1,0,0,1,0,.22,1.35,1.35,0,0,1-.08.24l-.1.26-1.39,3.45-.15.37a2.29,2.29,0,0,1-.21.39.76.76,0,0,1-.69.35.81.81,0,0,1-.49-.14A1.09,1.09,0,0,1,23,66a6.7,6.7,0,0,1-.29-.66L21.37,62a2.6,2.6,0,0,1-.1-.25,2.67,2.67,0,0,1-.09-.26,1.11,1.11,0,0,1,0-.23.58.58,0,0,1,.09-.3.7.7,0,0,1,.25-.23.59.59,0,0,1,.34-.1.55.55,0,0,1,.5.21A3.32,3.32,0,0,1,22.63,61.5Z"/><path class="cls-2" d="M32.77,63.54a3.27,3.27,0,0,1-.2,1.19,2.59,2.59,0,0,1-1.49,1.55,3.29,3.29,0,0,1-1.2.21,3,3,0,0,1-1.18-.22,2.58,2.58,0,0,1-.91-.6,2.77,2.77,0,0,1-.59-.94A3.5,3.5,0,0,1,27,63.54a3.38,3.38,0,0,1,.2-1.21A2.56,2.56,0,0,1,28.7,60.8a3.22,3.22,0,0,1,1.18-.21,3.09,3.09,0,0,1,1.2.22,2.58,2.58,0,0,1,.91.6,2.45,2.45,0,0,1,.58.94A3.23,3.23,0,0,1,32.77,63.54Zm-1.45,0a2.18,2.18,0,0,0-.39-1.38,1.26,1.26,0,0,0-1.05-.49,1.3,1.3,0,0,0-.75.22,1.4,1.4,0,0,0-.5.65,2.75,2.75,0,0,0-.17,1,2.7,2.7,0,0,0,.17,1,1.39,1.39,0,0,0,.5.65,1.35,1.35,0,0,0,1.8-.27A2.17,2.17,0,0,0,31.32,63.54Z"/><path class="cls-2" d="M37.68,65.67v-.19a3.66,3.66,0,0,1-.55.56,2.36,2.36,0,0,1-.63.33,2.55,2.55,0,0,1-.77.11,2,2,0,0,1-.94-.22,1.64,1.64,0,0,1-.65-.6,2.67,2.67,0,0,1-.27-1.33V61.46a.94.94,0,0,1,.2-.65.68.68,0,0,1,.52-.22.72.72,0,0,1,.53.22,1,1,0,0,1,.2.65v2.32a3.85,3.85,0,0,0,.08.84,1,1,0,0,0,.31.54.89.89,0,0,0,.6.2,1.28,1.28,0,0,0,.69-.22,1.37,1.37,0,0,0,.47-.57,4.65,4.65,0,0,0,.12-1.35V61.46a1,1,0,0,1,.2-.65.72.72,0,0,1,.53-.22.69.69,0,0,1,.52.22.94.94,0,0,1,.19.65v4.2a.94.94,0,0,1-.18.62.64.64,0,0,1-.49.21.61.61,0,0,1-.49-.22A.85.85,0,0,1,37.68,65.67Z"/><path class="cls-2" d="M41.91,64.39V65.6a.94.94,0,0,1-.2.67.73.73,0,0,1-.53.22.65.65,0,0,1-.51-.23.92.92,0,0,1-.2-.66v-4c0-.65.23-1,.7-1a.6.6,0,0,1,.52.23,1.23,1.23,0,0,1,.18.68,2.47,2.47,0,0,1,.53-.68,1.12,1.12,0,0,1,.73-.23,1.93,1.93,0,0,1,.89.23.7.7,0,0,1,.43.61.61.61,0,0,1-.19.44.57.57,0,0,1-.39.17,2.36,2.36,0,0,1-.39-.1,1.64,1.64,0,0,0-.54-.1.81.81,0,0,0-.52.17,1.09,1.09,0,0,0-.31.49,4,4,0,0,0-.15.79C41.93,63.59,41.91,64,41.91,64.39Z"/><path class="cls-2" d="M46,59.92a.74.74,0,0,1-.52-.19.66.66,0,0,1-.21-.52.64.64,0,0,1,.22-.51.73.73,0,0,1,.51-.2.77.77,0,0,1,.5.18.76.76,0,0,1,0,1A.71.71,0,0,1,46,59.92Zm.71,1.5V65.6a.92.92,0,0,1-.2.66.7.7,0,0,1-.53.23.68.68,0,0,1-.52-.23,1,1,0,0,1-.19-.66V61.46a1,1,0,0,1,.19-.65.71.71,0,0,1,.52-.22.73.73,0,0,1,.53.22A.85.85,0,0,1,46.68,61.42Z"/><path class="cls-2" d="M48.26,60.72h.16v-.87a4.2,4.2,0,0,1,0-.55.72.72,0,0,1,.1-.34.69.69,0,0,1,.24-.24.65.65,0,0,1,.36-.1.72.72,0,0,1,.5.21.64.64,0,0,1,.19.34,3.71,3.71,0,0,1,0,.56v1h.53a.68.68,0,0,1,.47.15.49.49,0,0,1,.16.37.42.42,0,0,1-.23.41,1.5,1.5,0,0,1-.66.12h-.27v2.66c0,.23,0,.4,0,.53a.52.52,0,0,0,.13.29.42.42,0,0,0,.33.12,1.93,1.93,0,0,0,.35-.05,1.69,1.69,0,0,1,.34,0,.43.43,0,0,1,.32.14.48.48,0,0,1,.14.34.58.58,0,0,1-.39.54,2.6,2.6,0,0,1-1.09.19,1.89,1.89,0,0,1-1-.23,1,1,0,0,1-.46-.63,4.42,4.42,0,0,1-.11-1.08V61.77h-.19a.69.69,0,0,1-.48-.15.49.49,0,0,1-.16-.38.44.44,0,0,1,.17-.37A.73.73,0,0,1,48.26,60.72Z"/><path class="cls-2" d="M56.07,63.9H53.24a2.06,2.06,0,0,0,.19.87,1.35,1.35,0,0,0,.52.56,1.33,1.33,0,0,0,.71.2,1.72,1.72,0,0,0,.47-.07,1.33,1.33,0,0,0,.42-.19,2.57,2.57,0,0,0,.37-.28c.11-.09.26-.23.44-.4a.51.51,0,0,1,.32-.09.52.52,0,0,1,.36.12.43.43,0,0,1,.14.34.88.88,0,0,1-.16.46,1.79,1.79,0,0,1-.46.51,2.85,2.85,0,0,1-.78.4,3.51,3.51,0,0,1-1.08.16,2.9,2.9,0,0,1-2.17-.8,3,3,0,0,1-.77-2.16A3.5,3.5,0,0,1,52,62.34a2.64,2.64,0,0,1,.55-1,2.49,2.49,0,0,1,.91-.6,3.18,3.18,0,0,1,1.18-.21,2.8,2.8,0,0,1,1.46.36,2.32,2.32,0,0,1,.91.93,2.44,2.44,0,0,1,.3,1.15c0,.37-.1.61-.31.71A1.91,1.91,0,0,1,56.07,63.9Zm-2.83-.83h2.62a1.76,1.76,0,0,0-.4-1.11,1.18,1.18,0,0,0-.91-.37,1.16,1.16,0,0,0-.89.38A1.82,1.82,0,0,0,53.24,63.07Z"/><path class="cls-2" d="M63.15,64.59a1.83,1.83,0,0,1-.29,1,1.89,1.89,0,0,1-.87.65,4,4,0,0,1-1.38.22,3.38,3.38,0,0,1-1.34-.24,1.91,1.91,0,0,1-.82-.6,1.2,1.2,0,0,1-.27-.72.57.57,0,0,1,.17-.41.6.6,0,0,1,.43-.17.52.52,0,0,1,.35.11,1.2,1.2,0,0,1,.23.32,1.6,1.6,0,0,0,.54.58,1.66,1.66,0,0,0,.84.19,1.25,1.25,0,0,0,.72-.2.55.55,0,0,0,.28-.44.61.61,0,0,0-.29-.56,3.69,3.69,0,0,0-1-.33,9.67,9.67,0,0,1-1.21-.39,2,2,0,0,1-.75-.54,1.22,1.22,0,0,1-.28-.82,1.49,1.49,0,0,1,.25-.83,1.86,1.86,0,0,1,.77-.62,3,3,0,0,1,1.22-.23,3.83,3.83,0,0,1,1,.12,2.6,2.6,0,0,1,.75.31,1.62,1.62,0,0,1,.46.44.88.88,0,0,1,.16.47.53.53,0,0,1-.17.4.65.65,0,0,1-.48.16.64.64,0,0,1-.38-.12,2.91,2.91,0,0,1-.35-.39,1.41,1.41,0,0,0-.39-.34,1.29,1.29,0,0,0-.61-.12,1.18,1.18,0,0,0-.65.16.51.51,0,0,0-.26.42.49.49,0,0,0,.19.38,2,2,0,0,0,.52.24l.89.23a4.78,4.78,0,0,1,1.1.39,2,2,0,0,1,.65.54A1.27,1.27,0,0,1,63.15,64.59Z"/></svg>