<svg id="Layer_1" data-name="Layer 1" xmlns="http://www.w3.org/2000/svg" viewBox="0 0 72 72"><defs><style>.cls-1{fill:#d8afca;}</style></defs><path class="cls-1" d="M37.48,3.53,63.86,29.91a2.1,2.1,0,0,1-1.48,3.58H9.62a2.1,2.1,0,0,1-1.48-3.58L34.52,3.53A2.09,2.09,0,0,1,37.48,3.53Z"/><path class="cls-1" d="M11.26,28.64V52.91a3.27,3.27,0,0,0,3.51,3h9.64a3.27,3.27,0,0,0,3.51-3V49.75a3.27,3.27,0,0,1,3.51-3h9a3.27,3.27,0,0,1,3.5,3v3.16a3.27,3.27,0,0,0,3.51,3h9.83a3.27,3.27,0,0,0,3.51-3V28.64a3.27,3.27,0,0,0-3.51-2.95H14.77A3.27,3.27,0,0,0,11.26,28.64Z"/><path class="cls-1" d="M23.42,59.32V61.5h3.32V59.32a1,1,0,0,1,.21-.69.69.69,0,0,1,.55-.24.74.74,0,0,1,.56.23,1,1,0,0,1,.22.7v6a1,1,0,0,1-.22.7.73.73,0,0,1-.56.24A.68.68,0,0,1,27,66a1,1,0,0,1-.21-.7V62.75H23.42V65.3a1,1,0,0,1-.21.7.73.73,0,0,1-.56.24.71.71,0,0,1-.56-.24,1.08,1.08,0,0,1-.2-.7v-6a1,1,0,0,1,.2-.69.7.7,0,0,1,.56-.24.74.74,0,0,1,.56.23A1,1,0,0,1,23.42,59.32Z"/><path class="cls-1" d="M35.12,63.36a3.38,3.38,0,0,1-.2,1.17,2.51,2.51,0,0,1-.57.91,2.35,2.35,0,0,1-.89.59,3.31,3.31,0,0,1-2.32,0,2.67,2.67,0,0,1-.88-.59,2.6,2.6,0,0,1-.57-.91,3.34,3.34,0,0,1-.2-1.17,3.42,3.42,0,0,1,.2-1.17,2.54,2.54,0,0,1,.56-.91,2.45,2.45,0,0,1,.89-.58,3.31,3.31,0,0,1,2.32,0,2.66,2.66,0,0,1,.9.59,2.73,2.73,0,0,1,.56.91A3.32,3.32,0,0,1,35.12,63.36Zm-1.42,0A2.14,2.14,0,0,0,33.32,62a1.25,1.25,0,0,0-1-.48,1.28,1.28,0,0,0-.73.21,1.39,1.39,0,0,0-.49.64,2.63,2.63,0,0,0-.17,1,2.59,2.59,0,0,0,.17,1,1.38,1.38,0,0,0,.48.64,1.29,1.29,0,0,0,.74.22,1.26,1.26,0,0,0,1-.49A2.14,2.14,0,0,0,33.7,63.36Z"/><path class="cls-1" d="M40.93,63.47v1.88a.92.92,0,0,1-.21.66.71.71,0,0,1-1,0,1,1,0,0,1-.2-.66V63.1c0-.36,0-.64,0-.83a1,1,0,0,0-.2-.49.66.66,0,0,0-.51-.18.89.89,0,0,0-.91.47,3.31,3.31,0,0,0-.22,1.37v1.91a1,1,0,0,1-.2.66.67.67,0,0,1-.53.23.68.68,0,0,1-.52-.23.93.93,0,0,1-.2-.66v-4a.91.91,0,0,1,.18-.61.6.6,0,0,1,.48-.21.66.66,0,0,1,.49.2.72.72,0,0,1,.19.53v.14a2.47,2.47,0,0,1,.79-.65,2.05,2.05,0,0,1,.93-.21,1.75,1.75,0,0,1,.91.22,1.55,1.55,0,0,1,.63.64,2.54,2.54,0,0,1,.77-.65,1.94,1.94,0,0,1,.91-.21,2,2,0,0,1,1,.23,1.47,1.47,0,0,1,.63.65,3,3,0,0,1,.18,1.21v2.76A1,1,0,0,1,44,66a.67.67,0,0,1-.53.23A.69.69,0,0,1,43,66a1,1,0,0,1-.2-.66V63a6.62,6.62,0,0,0,0-.73.93.93,0,0,0-.21-.46A.68.68,0,0,0,42,61.6a1,1,0,0,0-.53.16,1.07,1.07,0,0,0-.39.45A3.58,3.58,0,0,0,40.93,63.47Z"/><path class="cls-1" d="M49.54,63.71H46.78a1.81,1.81,0,0,0,.2.85,1.31,1.31,0,0,0,1.19.74,1.65,1.65,0,0,0,.46-.06,1.38,1.38,0,0,0,.41-.19,2.42,2.42,0,0,0,.36-.27l.43-.39a.46.46,0,0,1,.31-.09.51.51,0,0,1,.35.12.41.41,0,0,1,.14.33,1,1,0,0,1-.15.45,1.89,1.89,0,0,1-.46.49,2.36,2.36,0,0,1-.76.39,3.31,3.31,0,0,1-1,.16,2.82,2.82,0,0,1-2.12-.78,2.91,2.91,0,0,1-.75-2.11,3.66,3.66,0,0,1,.18-1.16,2.75,2.75,0,0,1,.55-.92,2.33,2.33,0,0,1,.88-.58,3.07,3.07,0,0,1,1.16-.21,2.79,2.79,0,0,1,1.42.35,2.32,2.32,0,0,1,.88.91,2.3,2.3,0,0,1,.3,1.12c0,.36-.1.59-.31.69A1.83,1.83,0,0,1,49.54,63.71Zm-2.76-.8h2.56A1.66,1.66,0,0,0,49,61.83a1.26,1.26,0,0,0-1.76,0A1.85,1.85,0,0,0,46.78,62.91Z"/></svg>