<svg id="Layer_1" data-name="Layer 1" xmlns="http://www.w3.org/2000/svg" viewBox="0 0 72 72"><defs><style>.cls-1,.cls-2{fill:none;stroke:#d8afca;stroke-miterlimit:10;stroke-width:6.43px;}.cls-2{stroke-linecap:round;}.cls-3{fill:#d8afca;}</style></defs><path class="cls-1" d="M46,22.82A16.84,16.84,0,1,1,29.17,6,16.74,16.74,0,0,1,46,22.82Z"/><line class="cls-2" x1="59.67" y1="52.38" x2="41.54" y2="34.26"/><path class="cls-3" d="M23.36,64.08A2.36,2.36,0,0,1,23,65.39a2.45,2.45,0,0,1-1.09.9,4.08,4.08,0,0,1-1.71.33,3.84,3.84,0,0,1-2-.45,2.61,2.61,0,0,1-.89-.86,2,2,0,0,1-.34-1,.69.69,0,0,1,.21-.51.69.69,0,0,1,.52-.21.6.6,0,0,1,.43.17,1.37,1.37,0,0,1,.31.48,2.92,2.92,0,0,0,.33.64,1.24,1.24,0,0,0,.5.42,1.7,1.7,0,0,0,.84.17,1.87,1.87,0,0,0,1.17-.34,1,1,0,0,0,.46-.83.91.91,0,0,0-.25-.65,1.52,1.52,0,0,0-.63-.38,10.41,10.41,0,0,0-1-.28,7.27,7.27,0,0,1-1.45-.47,2.27,2.27,0,0,1-.92-.74,1.9,1.9,0,0,1-.34-1.16,2,2,0,0,1,.36-1.17,2.23,2.23,0,0,1,1-.79,4.12,4.12,0,0,1,1.6-.28,3.75,3.75,0,0,1,1.28.19,2.6,2.6,0,0,1,.89.48,2,2,0,0,1,.52.64,1.47,1.47,0,0,1,.17.65.77.77,0,0,1-.21.52.68.68,0,0,1-.51.23.57.57,0,0,1-.42-.14,1.88,1.88,0,0,1-.32-.45,2,2,0,0,0-.52-.71,1.54,1.54,0,0,0-1-.25,1.76,1.76,0,0,0-1,.27.81.81,0,0,0-.38.66.68.68,0,0,0,.13.42,1.07,1.07,0,0,0,.36.3,3.05,3.05,0,0,0,.46.2l.78.2c.45.11.86.23,1.23.35a3.68,3.68,0,0,1,.93.47,1.81,1.81,0,0,1,.6.69A2.26,2.26,0,0,1,23.36,64.08Z"/><path class="cls-3" d="M28.79,64H25.87a2,2,0,0,0,.21.89,1.45,1.45,0,0,0,.53.59,1.4,1.4,0,0,0,.73.19,1.8,1.8,0,0,0,.48-.06,1.52,1.52,0,0,0,.43-.2,3.89,3.89,0,0,0,.39-.28l.45-.42a.5.5,0,0,1,.33-.1.57.57,0,0,1,.37.13.45.45,0,0,1,.14.35.94.94,0,0,1-.16.48,1.63,1.63,0,0,1-.48.51,2.62,2.62,0,0,1-.8.42,3.42,3.42,0,0,1-1.11.16,2.94,2.94,0,0,1-2.23-.82,3,3,0,0,1-.8-2.22,3.53,3.53,0,0,1,.2-1.23,2.77,2.77,0,0,1,.57-1,2.53,2.53,0,0,1,.93-.62,3.36,3.36,0,0,1,1.22-.21,2.88,2.88,0,0,1,1.5.37,2.38,2.38,0,0,1,.94.95A2.61,2.61,0,0,1,30,63.06c0,.38-.11.62-.33.73A2,2,0,0,1,28.79,64Zm-2.92-.85h2.7A1.75,1.75,0,0,0,28.16,62a1.21,1.21,0,0,0-.94-.38,1.16,1.16,0,0,0-.91.38A1.92,1.92,0,0,0,25.87,63.11Z"/><path class="cls-3" d="M35,65.78a4.56,4.56,0,0,1-1,.63,2.88,2.88,0,0,1-1.13.21,2.18,2.18,0,0,1-1-.23,1.62,1.62,0,0,1-.66-.61,1.57,1.57,0,0,1-.24-.84,1.48,1.48,0,0,1,.39-1,1.93,1.93,0,0,1,1.06-.58l.71-.15,1-.21c.27-.06.56-.14.87-.23a1.58,1.58,0,0,0-.24-.87,1.07,1.07,0,0,0-.87-.27,1.87,1.87,0,0,0-.85.15,1.4,1.4,0,0,0-.49.48l-.29.42a.48.48,0,0,1-.37.1.67.67,0,0,1-.43-.16.54.54,0,0,1-.18-.41,1.24,1.24,0,0,1,.28-.77,1.92,1.92,0,0,1,.86-.61,4,4,0,0,1,1.47-.24,4.29,4.29,0,0,1,1.55.23,1.46,1.46,0,0,1,.79.73,3.15,3.15,0,0,1,.24,1.34c0,.35,0,.64,0,.89v.81a3.13,3.13,0,0,0,.13.88,2.38,2.38,0,0,1,.14.58.54.54,0,0,1-.21.42.72.72,0,0,1-.49.19.65.65,0,0,1-.45-.21A3.65,3.65,0,0,1,35,65.78Zm-.1-2.16a7.34,7.34,0,0,1-.95.26l-.87.19a1.39,1.39,0,0,0-.46.25.64.64,0,0,0-.21.51.76.76,0,0,0,.25.58,1,1,0,0,0,.67.23,1.74,1.74,0,0,0,.82-.19,1.35,1.35,0,0,0,.55-.5,2.36,2.36,0,0,0,.2-1.11Z"/><path class="cls-3" d="M39.4,64.47v1.24a1,1,0,0,1-.21.68.74.74,0,0,1-.54.23.67.67,0,0,1-.53-.23,1,1,0,0,1-.21-.68V61.56c0-.67.24-1,.72-1a.63.63,0,0,1,.54.23,1.3,1.3,0,0,1,.18.7,2.62,2.62,0,0,1,.55-.7,1.18,1.18,0,0,1,.75-.23,2,2,0,0,1,.91.23.7.7,0,0,1,.44.63.61.61,0,0,1-.18.45.59.59,0,0,1-.41.17,1.65,1.65,0,0,1-.4-.1,2.08,2.08,0,0,0-.55-.1.85.85,0,0,0-.54.17,1.16,1.16,0,0,0-.32.52,3.32,3.32,0,0,0-.16.8C39.41,63.64,39.4,64,39.4,64.47Z"/><path class="cls-3" d="M47.87,64.78a1.28,1.28,0,0,1-.16.59,2,2,0,0,1-.51.6,2.52,2.52,0,0,1-.86.47,3.89,3.89,0,0,1-1.17.17A2.86,2.86,0,0,1,43,65.8a3,3,0,0,1-.77-2.16A3.64,3.64,0,0,1,42.59,62a2.58,2.58,0,0,1,1-1.09,3.25,3.25,0,0,1,1.61-.38,3.32,3.32,0,0,1,1.06.17,3,3,0,0,1,.82.43,2.11,2.11,0,0,1,.51.58,1.11,1.11,0,0,1,.18.56.59.59,0,0,1-.2.45.69.69,0,0,1-.49.19.44.44,0,0,1-.3-.1,1.18,1.18,0,0,1-.28-.3A2.22,2.22,0,0,0,46,61.9a1.42,1.42,0,0,0-1.82.31,2.25,2.25,0,0,0-.41,1.41,2.77,2.77,0,0,0,.11.78,1.88,1.88,0,0,0,.3.6,1.29,1.29,0,0,0,.47.37,1.41,1.41,0,0,0,.62.13,1.35,1.35,0,0,0,.76-.21,1.86,1.86,0,0,0,.57-.63,1.41,1.41,0,0,1,.29-.39.56.56,0,0,1,.39-.15.57.57,0,0,1,.45.21A.68.68,0,0,1,47.87,64.78Z"/><path class="cls-3" d="M50.35,59.25v2.21a3.29,3.29,0,0,1,.56-.52,1.88,1.88,0,0,1,.59-.28,2.34,2.34,0,0,1,.71-.1,2.09,2.09,0,0,1,1,.24,1.72,1.72,0,0,1,.69.7,1.94,1.94,0,0,1,.21.6,4.26,4.26,0,0,1,.06.76v2.85a1,1,0,0,1-.21.68.71.71,0,0,1-.54.23c-.49,0-.74-.3-.74-.91V63.2a2.31,2.31,0,0,0-.21-1.1.84.84,0,0,0-.81-.39,1.21,1.21,0,0,0-.72.23,1.43,1.43,0,0,0-.48.62,3.91,3.91,0,0,0-.12,1.18v2a1,1,0,0,1-.2.68.69.69,0,0,1-.55.23c-.49,0-.74-.3-.74-.91V59.25a1,1,0,0,1,.2-.68.68.68,0,0,1,.54-.23.69.69,0,0,1,.55.23A1,1,0,0,1,50.35,59.25Z"/></svg>